<svg width="121" height="44" viewBox="0 0 121 44" fill="none" xmlns="http://www.w3.org/2000/svg">
<g id="B_Construct_Black_Logo">
<path id="Vector" d="M25.6449 27.1523H18.2986V34.4747H25.6449V27.1523Z" fill="black"/>
<path id="Vector_2" d="M16.8632 18.332H9.51685V25.6544H16.8632V18.332Z" fill="black"/>
<path id="Vector_3" d="M16.8632 27.1367H9.51685V34.4591H16.8632V27.1367Z" fill="black"/>
<path id="Vector_4" d="M25.6449 9.52734H18.2986V16.8497H25.6449V9.52734Z" fill="black"/>
<path id="Vector_5" d="M40.7707 28.5251C39.8095 28.5251 39.0259 28.4269 38.4207 28.2302C37.8153 28.0334 37.3478 27.7571 37.0186 27.4008C36.6945 27.0395 36.4689 26.6115 36.3415 26.1171C36.2194 25.6229 36.1582 25.0752 36.1582 24.4746V20.8546C36.1582 20.2433 36.2167 19.6825 36.3336 19.1722C36.4557 18.6565 36.6787 18.21 37.0027 17.8326C37.3319 17.4552 37.7967 17.1628 38.3967 16.9555C39.0022 16.7482 39.7882 16.6445 40.7546 16.6445C41.6256 16.6445 42.3426 16.7243 42.9057 16.8837C43.4685 17.0379 43.9067 17.2691 44.2199 17.5774C44.5333 17.8858 44.751 18.2685 44.8731 18.7256C45.0007 19.1775 45.0644 19.7011 45.0644 20.2964V20.4001L43.5428 20.5356V20.3204C43.5428 19.624 43.4526 19.1057 43.272 18.7655C43.0967 18.4253 42.8046 18.202 42.3958 18.0957C41.9868 17.9894 41.4398 17.9362 40.7546 17.9362C40.0803 17.9362 39.5226 18.0133 39.0819 18.1675C38.641 18.3163 38.3117 18.5821 38.094 18.9649C37.8762 19.3423 37.7675 19.8738 37.7675 20.5596V24.7218C37.7675 25.4022 37.8789 25.9232 38.1019 26.2847C38.3251 26.646 38.6595 26.8959 39.1057 27.0341C39.5571 27.167 40.1227 27.2334 40.8024 27.2334C41.4716 27.2334 42.0054 27.1883 42.4037 27.0978C42.8073 27.0075 43.0967 26.803 43.272 26.4838C43.4526 26.1597 43.5428 25.6546 43.5428 24.969V24.7776H45.0644V24.8574C45.0644 25.4367 45.0087 25.9549 44.8972 26.4122C44.7909 26.864 44.589 27.2468 44.2917 27.5605C43.9942 27.8739 43.5614 28.1132 42.9931 28.2781C42.4303 28.4427 41.6893 28.5251 40.7707 28.5251ZM50.9832 28.5251C50.1387 28.5251 49.4589 28.411 48.9439 28.1824C48.434 27.9483 48.0622 27.6294 47.8286 27.2255C47.6002 26.8215 47.486 26.3591 47.486 25.8381V22.4334C47.486 21.9124 47.6002 21.4499 47.8286 21.046C48.0622 20.6366 48.434 20.3177 48.9439 20.0891C49.4589 19.8552 50.1387 19.7383 50.9832 19.7383C51.8223 19.7383 52.4968 19.8552 53.0067 20.0891C53.5217 20.3177 53.896 20.6366 54.1299 21.046C54.3635 21.4499 54.4804 21.9124 54.4804 22.4334V25.8381C54.4804 26.3591 54.3635 26.8215 54.1299 27.2255C53.896 27.6294 53.5217 27.9483 53.0067 28.1824C52.4968 28.411 51.8223 28.5251 50.9832 28.5251ZM50.9832 27.377C51.5673 27.377 52.0455 27.2733 52.4171 27.066C52.7941 26.8533 52.9826 26.4866 52.9826 25.9656V22.3058C52.9826 21.7848 52.7941 21.4181 52.4171 21.2054C52.0455 20.9928 51.5673 20.8865 50.9832 20.8865C50.3884 20.8865 49.9051 20.9928 49.5335 21.2054C49.1668 21.4181 48.9837 21.7848 48.9837 22.3058V25.9656C48.9837 26.4866 49.1668 26.8533 49.5335 27.066C49.9051 27.2733 50.3884 27.377 50.9832 27.377ZM57.1411 19.8978H58.6386V20.719C58.8883 20.432 59.2148 20.1981 59.6184 20.0174C60.0222 19.8313 60.5293 19.7383 61.1399 19.7383C61.8358 19.7383 62.3932 19.8526 62.8129 20.0812C63.2377 20.3044 63.5457 20.6048 63.7369 20.9822C63.9282 21.3543 64.0238 21.7636 64.0238 22.2101V28.3498H62.526V22.1224C62.526 21.8407 62.4517 21.6094 62.303 21.4287C62.1544 21.248 61.9473 21.1124 61.6817 21.022C61.4162 20.9317 61.1082 20.8865 60.7577 20.8865C60.2689 20.8865 59.8681 20.9503 59.5547 21.0778C59.2413 21.2054 59.0104 21.3782 58.8618 21.5961C58.7129 21.8141 58.6386 22.0586 58.6386 22.3297V28.3498H57.1411V19.8978ZM66.5568 27.8394L66.9235 26.739C67.1093 26.8401 67.4306 26.9731 67.8874 27.1377C68.344 27.2972 68.8592 27.377 69.4327 27.377C70.0967 27.377 70.5453 27.2547 70.7789 27.0103C71.0128 26.7658 71.1295 26.4652 71.1295 26.1092C71.1295 25.7796 71.0844 25.5192 70.994 25.3278C70.9092 25.1364 70.6674 24.9663 70.2691 24.8175L68.2617 24.0838C67.6511 23.8606 67.2235 23.5975 66.9792 23.2945C66.7349 22.9915 66.6128 22.5769 66.6128 22.0506C66.6128 21.3383 66.8093 20.7749 67.2022 20.3602C67.5951 19.9456 68.3123 19.7383 69.353 19.7383C69.9478 19.7383 70.4923 19.7861 70.986 19.8818C71.4852 19.9722 71.889 20.0785 72.1969 20.2008L71.8543 21.3489C71.695 21.2798 71.4852 21.2107 71.2251 21.1416C70.965 21.0725 70.694 21.014 70.4125 20.9662C70.1311 20.9131 69.8707 20.8865 69.6319 20.8865C68.9467 20.8865 68.5033 20.9742 68.3016 21.1496C68.1049 21.3197 68.0068 21.5961 68.0068 21.9789C68.0068 22.2393 68.0546 22.4334 68.1502 22.5609C68.2511 22.6833 68.4448 22.8001 68.7317 22.9117L70.7153 23.6853C71.1879 23.8658 71.5437 24.06 71.7827 24.2673C72.027 24.4694 72.1917 24.7139 72.2767 25.0008C72.3617 25.2879 72.404 25.6519 72.404 26.0933C72.404 26.5344 72.3111 26.9411 72.1253 27.3133C71.9447 27.68 71.6499 27.9751 71.241 28.1983C70.8374 28.4162 70.301 28.5251 69.6319 28.5251C68.8459 28.5251 68.1847 28.4375 67.6483 28.262C67.112 28.0867 66.7481 27.9458 66.5568 27.8394ZM75.3753 25.9338V21.03H73.9655V19.8978H75.4313L75.6144 17.2824H76.8731V19.8978H78.992V21.03H76.8731V25.8381C76.8731 26.3963 77.0376 26.7551 77.3671 26.9145C77.6963 27.074 78.2168 27.1538 78.9283 27.1538H79.0955L78.9362 28.4135H78.7133C77.9431 28.4135 77.3111 28.3364 76.8174 28.1824C76.3286 28.0281 75.9649 27.7703 75.7259 27.409C75.4923 27.042 75.3753 26.5503 75.3753 25.9338ZM81.4376 19.8978H82.9353V21.0938C83.0575 20.7749 83.2777 20.5197 83.5965 20.3283C83.9203 20.1316 84.287 19.9908 84.6957 19.9057C85.1047 19.8207 85.4952 19.7781 85.8668 19.7781L85.819 21.0619C85.458 21.0619 85.1047 21.0991 84.7594 21.1735C84.4195 21.248 84.1116 21.3516 83.8354 21.4845C83.5594 21.6121 83.3389 21.7583 83.1742 21.9231C83.0149 22.0878 82.9353 22.2579 82.9353 22.4334V28.3498H81.4376V19.8978ZM90.6227 28.5251C89.9323 28.5251 89.3719 28.411 88.9418 28.1824C88.517 27.9538 88.2061 27.6507 88.0096 27.2733C87.8132 26.8959 87.7149 26.4838 87.7149 26.0375V19.8978H89.2126V26.0454C89.2126 26.3219 89.2817 26.561 89.4197 26.763C89.5577 26.9597 89.7542 27.1112 90.0091 27.2176C90.2694 27.3239 90.5722 27.377 90.9173 27.377C91.406 27.377 91.8096 27.3026 92.1282 27.1538C92.4522 27.0048 92.691 26.8161 92.8451 26.5875C93.0044 26.3537 93.0842 26.1198 93.0842 25.886V19.8978H94.5817V28.3498H93.2435L93.0842 27.2892C92.8716 27.6666 92.561 27.9669 92.1522 28.1903C91.7484 28.4135 91.2386 28.5251 90.6227 28.5251ZM100.676 28.5251C99.8368 28.5251 99.165 28.3924 98.6604 28.1266C98.1612 27.8553 97.8 27.4992 97.577 27.0581C97.3541 26.6115 97.2424 26.1278 97.2424 25.6068V22.3855C97.2424 21.5882 97.5451 20.9476 98.1505 20.4639C98.7612 19.9802 99.5898 19.7383 100.636 19.7383C101.31 19.7383 101.897 19.818 102.396 19.9775C102.896 20.1316 103.281 20.4134 103.552 20.8227C103.828 21.232 103.966 21.8167 103.966 22.5769L102.54 22.7125C102.54 22.1968 102.481 21.8088 102.365 21.5483C102.248 21.2878 102.054 21.1124 101.783 21.022C101.512 20.9317 101.143 20.8865 100.676 20.8865C100.033 20.8865 99.55 21.0034 99.2259 21.2373C98.9021 21.4659 98.7401 21.8619 98.7401 22.4254V25.7345C98.7401 26.3405 98.9101 26.7658 99.25 27.0103C99.5951 27.2547 100.07 27.377 100.676 27.377C101.17 27.377 101.544 27.3425 101.799 27.2733C102.059 27.199 102.243 27.0554 102.349 26.8426C102.455 26.6249 102.527 26.3033 102.564 25.878H103.95C103.897 26.5265 103.759 27.0447 103.536 27.4328C103.313 27.8208 102.97 28.0998 102.508 28.2699C102.051 28.44 101.441 28.5251 100.676 28.5251ZM106.921 25.9338V21.03H105.511V19.8978H106.977L107.16 17.2824H108.419V19.8978H110.538V21.03H108.419V25.8381C108.419 26.3963 108.583 26.7551 108.913 26.9145C109.242 27.074 109.762 27.1538 110.474 27.1538H110.641L110.482 28.4135H110.259C109.489 28.4135 108.857 28.3364 108.363 28.1824C107.874 28.0281 107.511 27.7703 107.272 27.409C107.038 27.042 106.921 26.5503 106.921 25.9338Z" fill="black"/>
</g>
</svg>
