<svg width="534" height="194" viewBox="0 0 534 194" fill="none" xmlns="http://www.w3.org/2000/svg">
<rect x="80.7559" y="119.715" width="32.4211" height="32.285" fill="black"/>
<rect x="42" y="80.8237" width="32.4211" height="32.285" fill="black"/>
<rect x="42" y="119.647" width="32.4211" height="32.285" fill="black"/>
<rect x="80.7559" y="42" width="32.4211" height="32.285" fill="black"/>
<path d="M179.93 125.773C175.688 125.773 172.23 125.34 169.559 124.473C166.887 123.605 164.824 122.387 163.371 120.816C161.941 119.223 160.945 117.336 160.383 115.156C159.844 112.977 159.574 110.562 159.574 107.914V91.9531C159.574 89.2578 159.832 86.7852 160.348 84.5352C160.887 82.2617 161.871 80.293 163.301 78.6289C164.754 76.9648 166.805 75.6758 169.453 74.7617C172.125 73.8477 175.594 73.3906 179.859 73.3906C183.703 73.3906 186.867 73.7422 189.352 74.4453C191.836 75.125 193.77 76.1445 195.152 77.5039C196.535 78.8633 197.496 80.5508 198.035 82.5664C198.598 84.5586 198.879 86.8672 198.879 89.4922V89.9492L192.164 90.5469V89.5977C192.164 86.5273 191.766 84.2422 190.969 82.7422C190.195 81.2422 188.906 80.2578 187.102 79.7891C185.297 79.3203 182.883 79.0859 179.859 79.0859C176.883 79.0859 174.422 79.4258 172.477 80.1055C170.531 80.7617 169.078 81.9336 168.117 83.6211C167.156 85.2852 166.676 87.6289 166.676 90.6523V109.004C166.676 112.004 167.168 114.301 168.152 115.895C169.137 117.488 170.613 118.59 172.582 119.199C174.574 119.785 177.07 120.078 180.07 120.078C183.023 120.078 185.379 119.879 187.137 119.48C188.918 119.082 190.195 118.18 190.969 116.773C191.766 115.344 192.164 113.117 192.164 110.094V109.25H198.879V109.602C198.879 112.156 198.633 114.441 198.141 116.457C197.672 118.449 196.781 120.137 195.469 121.52C194.156 122.902 192.246 123.957 189.738 124.684C187.254 125.41 183.984 125.773 179.93 125.773ZM225 125.773C221.273 125.773 218.273 125.27 216 124.262C213.75 123.23 212.109 121.824 211.078 120.043C210.07 118.262 209.566 116.223 209.566 113.926V98.9141C209.566 96.6172 210.07 94.5781 211.078 92.7969C212.109 90.9922 213.75 89.5859 216 88.5781C218.273 87.5469 221.273 87.0312 225 87.0312C228.703 87.0312 231.68 87.5469 233.93 88.5781C236.203 89.5859 237.855 90.9922 238.887 92.7969C239.918 94.5781 240.434 96.6172 240.434 98.9141V113.926C240.434 116.223 239.918 118.262 238.887 120.043C237.855 121.824 236.203 123.23 233.93 124.262C231.68 125.27 228.703 125.773 225 125.773ZM225 120.711C227.578 120.711 229.688 120.254 231.328 119.34C232.992 118.402 233.824 116.785 233.824 114.488V98.3516C233.824 96.0547 232.992 94.4375 231.328 93.5C229.688 92.5625 227.578 92.0938 225 92.0938C222.375 92.0938 220.242 92.5625 218.602 93.5C216.984 94.4375 216.176 96.0547 216.176 98.3516V114.488C216.176 116.785 216.984 118.402 218.602 119.34C220.242 120.254 222.375 120.711 225 120.711ZM252.176 87.7344H258.785V91.3555C259.887 90.0898 261.328 89.0586 263.109 88.2617C264.891 87.4414 267.129 87.0312 269.824 87.0312C272.895 87.0312 275.355 87.5352 277.207 88.543C279.082 89.5273 280.441 90.8516 281.285 92.5156C282.129 94.1562 282.551 95.9609 282.551 97.9297V125H275.941V97.543C275.941 96.3008 275.613 95.2812 274.957 94.4844C274.301 93.6875 273.387 93.0898 272.215 92.6914C271.043 92.293 269.684 92.0938 268.137 92.0938C265.98 92.0938 264.211 92.375 262.828 92.9375C261.445 93.5 260.426 94.2617 259.77 95.2227C259.113 96.1836 258.785 97.2617 258.785 98.457V125H252.176V87.7344ZM293.73 122.75L295.348 117.898C296.168 118.344 297.586 118.93 299.602 119.656C301.617 120.359 303.891 120.711 306.422 120.711C309.352 120.711 311.332 120.172 312.363 119.094C313.395 118.016 313.91 116.691 313.91 115.121C313.91 113.668 313.711 112.52 313.312 111.676C312.938 110.832 311.871 110.082 310.113 109.426L301.254 106.191C298.559 105.207 296.672 104.047 295.594 102.711C294.516 101.375 293.977 99.5469 293.977 97.2266C293.977 94.0859 294.844 91.6016 296.578 89.7734C298.312 87.9453 301.477 87.0312 306.07 87.0312C308.695 87.0312 311.098 87.2422 313.277 87.6641C315.48 88.0625 317.262 88.5312 318.621 89.0703L317.109 94.1328C316.406 93.8281 315.48 93.5234 314.332 93.2188C313.184 92.9141 311.988 92.6562 310.746 92.4453C309.504 92.2109 308.355 92.0938 307.301 92.0938C304.277 92.0938 302.32 92.4805 301.43 93.2539C300.562 94.0039 300.129 95.2227 300.129 96.9102C300.129 98.0586 300.34 98.9141 300.762 99.4766C301.207 100.016 302.062 100.531 303.328 101.023L312.082 104.434C314.168 105.23 315.738 106.086 316.793 107C317.871 107.891 318.598 108.969 318.973 110.234C319.348 111.5 319.535 113.105 319.535 115.051C319.535 116.996 319.125 118.789 318.305 120.43C317.508 122.047 316.207 123.348 314.402 124.332C312.621 125.293 310.254 125.773 307.301 125.773C303.832 125.773 300.914 125.387 298.547 124.613C296.18 123.84 294.574 123.219 293.73 122.75ZM332.648 114.348V92.7266H326.426V87.7344H332.895L333.703 76.2031H339.258V87.7344H348.609V92.7266H339.258V113.926C339.258 116.387 339.984 117.969 341.438 118.672C342.891 119.375 345.188 119.727 348.328 119.727H349.066L348.363 125.281H347.379C343.98 125.281 341.191 124.941 339.012 124.262C336.855 123.582 335.25 122.445 334.195 120.852C333.164 119.234 332.648 117.066 332.648 114.348ZM359.402 87.7344H366.012V93.0078C366.551 91.6016 367.523 90.4766 368.93 89.6328C370.359 88.7656 371.977 88.1445 373.781 87.7695C375.586 87.3945 377.309 87.207 378.949 87.207L378.738 92.8672C377.145 92.8672 375.586 93.0312 374.062 93.3594C372.562 93.6875 371.203 94.1445 369.984 94.7305C368.766 95.293 367.793 95.9375 367.066 96.6641C366.363 97.3906 366.012 98.1406 366.012 98.9141V125H359.402V87.7344ZM399.938 125.773C396.891 125.773 394.418 125.27 392.52 124.262C390.645 123.254 389.273 121.918 388.406 120.254C387.539 118.59 387.105 116.773 387.105 114.805V87.7344H393.715V114.84C393.715 116.059 394.02 117.113 394.629 118.004C395.238 118.871 396.105 119.539 397.23 120.008C398.379 120.477 399.715 120.711 401.238 120.711C403.395 120.711 405.176 120.383 406.582 119.727C408.012 119.07 409.066 118.238 409.746 117.23C410.449 116.199 410.801 115.168 410.801 114.137V87.7344H417.41V125H411.504L410.801 120.324C409.863 121.988 408.492 123.312 406.688 124.297C404.906 125.281 402.656 125.773 399.938 125.773ZM444.305 125.773C440.602 125.773 437.637 125.188 435.41 124.016C433.207 122.82 431.613 121.25 430.629 119.305C429.645 117.336 429.152 115.203 429.152 112.906V98.7031C429.152 95.1875 430.488 92.3633 433.16 90.2305C435.855 88.0977 439.512 87.0312 444.129 87.0312C447.105 87.0312 449.695 87.3828 451.898 88.0859C454.102 88.7656 455.801 90.0078 456.996 91.8125C458.215 93.6172 458.824 96.1953 458.824 99.5469L452.531 100.145C452.531 97.8711 452.273 96.1602 451.758 95.0117C451.242 93.8633 450.387 93.0898 449.191 92.6914C447.996 92.293 446.367 92.0938 444.305 92.0938C441.469 92.0938 439.336 92.6094 437.906 93.6406C436.477 94.6484 435.762 96.3945 435.762 98.8789V113.469C435.762 116.141 436.512 118.016 438.012 119.094C439.535 120.172 441.633 120.711 444.305 120.711C446.484 120.711 448.137 120.559 449.262 120.254C450.41 119.926 451.219 119.293 451.688 118.355C452.156 117.395 452.473 115.977 452.637 114.102H458.754C458.52 116.961 457.91 119.246 456.926 120.957C455.941 122.668 454.43 123.898 452.391 124.648C450.375 125.398 447.68 125.773 444.305 125.773ZM471.867 114.348V92.7266H465.645V87.7344H472.113L472.922 76.2031H478.477V87.7344H487.828V92.7266H478.477V113.926C478.477 116.387 479.203 117.969 480.656 118.672C482.109 119.375 484.406 119.727 487.547 119.727H488.285L487.582 125.281H486.598C483.199 125.281 480.41 124.941 478.23 124.262C476.074 123.582 474.469 122.445 473.414 120.852C472.383 119.234 471.867 117.066 471.867 114.348Z" fill="black"/>
</svg>

